<svg data-v-fde0c5aa="" xmlns="http://www.w3.org/2000/svg" viewBox="0 0 300 300" class="font"><!----><defs data-v-fde0c5aa=""><!----></defs><rect data-v-fde0c5aa="" fill="#D2EAF5" x="0" y="0" width="300px" height="300px" class="logo-background-square"></rect><defs data-v-fde0c5aa=""><linearGradient data-v-fde0c5aa="" gradientTransform="rotate(25)" id="b33ec71e-c9df-4211-b74f-793f54fb83bf" x1="0%" y1="0%" x2="100%" y2="0%"><stop data-v-fde0c5aa="" offset="0%" stop-color="#000A68" stop-opacity="1"></stop><stop data-v-fde0c5aa="" offset="100%" stop-color="#00C4EE" stop-opacity="1"></stop></linearGradient></defs><g data-v-fde0c5aa="" id="2624d4ce-8bd6-4f66-b896-ad990811f39d" fill="url(#b33ec71e-c9df-4211-b74f-793f54fb83bf)" transform="matrix(1.7151320860073684,0,0,1.7151320860073684,37.95899271951059,131.7252676726618)"><path d="M2.31 14.35L2.31 9.34C2.31 8.41 3.18 7.97 4.07 7.97C5.15 7.97 5.71 8.62 5.71 9.91L5.71 14.35L6.83 14.35L6.83 9.72C6.83 7.97 5.89 6.96 4.41 6.96C3.33 6.96 2.72 7.49 2.37 8.30L2.31 8.30L2.31 7.13L1.19 7.13L1.19 14.35ZM13.59 14.35L14.71 14.35L14.71 7.13L13.59 7.13L13.59 12.12C13.59 13.08 12.73 13.51 11.84 13.51C10.77 13.51 10.19 12.85 10.19 11.56L10.19 7.13L9.07 7.13L9.07 11.76C9.07 13.51 10.02 14.52 11.51 14.52C12.71 14.52 13.26 13.86 13.54 13.17L13.59 13.17ZM18.21 14.35L18.21 9.34C18.21 8.41 19.05 7.97 19.94 7.97C21 7.97 21.49 8.62 21.49 9.91L21.49 14.35L22.61 14.35L22.61 9.34C22.61 8.41 23.42 7.97 24.30 7.97C25.40 7.97 25.89 8.64 25.89 9.91L25.89 14.35L27.01 14.35L27.01 9.72C27.01 7.97 26.12 6.96 24.65 6.96C23.42 6.96 22.72 7.64 22.46 8.43L22.43 8.43C22.04 7.39 21.17 6.96 20.22 6.96C19.10 6.96 18.59 7.56 18.27 8.30L18.21 8.30L18.21 7.13L17.09 7.13L17.09 14.35ZM32.03 14.52C33.39 14.52 34.43 13.85 34.89 12.87L34.09 12.29C33.71 13.09 33.01 13.54 32.10 13.54C30.76 13.54 29.96 12.60 29.96 11.35L29.96 11.02L35.15 11.02L35.15 10.49C35.15 8.44 33.96 6.96 32.03 6.96C30.07 6.96 28.78 8.44 28.78 10.74C28.78 13.03 30.07 14.52 32.03 14.52ZM32.03 7.90C33.18 7.90 33.95 8.75 33.95 10.02L33.95 10.18L29.96 10.18L29.96 10.08C29.96 8.82 30.81 7.90 32.03 7.90ZM38.12 14.35L38.12 9.45C38.12 8.76 38.85 8.25 40.05 8.25L40.71 8.25L40.71 7.13L40.28 7.13C39.10 7.13 38.44 7.77 38.19 8.46L38.12 8.46L38.12 7.13L37.00 7.13L37.00 14.35ZM44.80 14.52C46.73 14.52 48.06 13.03 48.06 10.74C48.06 8.44 46.73 6.96 44.80 6.96C42.87 6.96 41.54 8.44 41.54 10.74C41.54 13.03 42.87 14.52 44.80 14.52ZM44.80 13.52C43.60 13.52 42.74 12.78 42.74 11.26L42.74 10.22C42.74 8.69 43.60 7.95 44.80 7.95C46.00 7.95 46.86 8.69 46.86 10.22L46.86 11.26C46.86 12.78 46.00 13.52 44.80 13.52ZM52.09 14.35L52.09 13.37L51.03 13.37L51.03 3.99L49.91 3.99L49.91 13.19C49.91 13.86 50.33 14.35 51.10 14.35ZM56.45 14.52C58.38 14.52 59.71 13.03 59.71 10.74C59.71 8.44 58.38 6.96 56.45 6.96C54.52 6.96 53.19 8.44 53.19 10.74C53.19 13.03 54.52 14.52 56.45 14.52ZM56.45 13.52C55.24 13.52 54.39 12.78 54.39 11.26L54.39 10.22C54.39 8.69 55.24 7.95 56.45 7.95C57.65 7.95 58.51 8.69 58.51 10.22L58.51 11.26C58.51 12.78 57.65 13.52 56.45 13.52ZM67.65 15.15C67.65 13.96 66.88 13.23 65.09 13.23L63.55 13.23C62.89 13.23 62.44 13.12 62.44 12.68C62.44 12.24 62.92 12.00 63.39 11.87C63.60 11.91 63.85 11.94 64.09 11.94C65.74 11.94 66.82 10.92 66.82 9.45C66.82 8.68 66.51 8.04 66.00 7.59L66.00 7.13L67.37 7.13L67.37 6.15L66.29 6.15C65.69 6.15 65.45 6.55 65.45 7.11L65.45 7.24C65.06 7.06 64.60 6.96 64.08 6.96C62.44 6.96 61.36 7.98 61.36 9.45C61.36 10.46 61.87 11.26 62.72 11.66L62.72 11.72C61.99 11.90 61.47 12.25 61.47 12.98C61.47 13.47 61.71 13.79 62.12 13.99L62.12 14.14C61.40 14.34 60.97 14.76 60.97 15.54C60.97 16.67 61.89 17.32 64.15 17.32C66.47 17.32 67.65 16.63 67.65 15.15ZM66.60 15.23C66.60 16.02 65.87 16.41 64.62 16.41L63.59 16.41C62.45 16.41 62.02 15.89 62.02 15.26C62.02 14.81 62.23 14.49 62.69 14.28L65.10 14.28C66.22 14.28 66.60 14.66 66.60 15.23ZM64.09 11.05C63.14 11.05 62.54 10.60 62.54 9.65L62.54 9.25C62.54 8.30 63.14 7.85 64.09 7.85C65.04 7.85 65.65 8.30 65.65 9.25L65.65 9.65C65.65 10.60 65.04 11.05 64.09 11.05ZM71.72 12.04L71.33 13.22L71.26 13.22L70.92 12.04L69.19 7.13L68.07 7.13L70.77 14.63L70.22 16.17L69.09 16.17L69.09 17.15L69.66 17.15C70.73 17.15 71.02 16.90 71.34 16.03L74.58 7.13L73.47 7.13ZM79.87 5.43C80.35 5.43 80.56 5.18 80.56 4.80L80.56 4.62C80.56 4.24 80.35 3.99 79.87 3.99C79.39 3.99 79.18 4.24 79.18 4.62L79.18 4.80C79.18 5.18 79.39 5.43 79.87 5.43ZM79.31 14.35L80.43 14.35L80.43 7.13L79.31 7.13ZM83.93 14.35L83.93 9.34C83.93 8.41 84.80 7.97 85.69 7.97C86.77 7.97 87.33 8.62 87.33 9.91L87.33 14.35L88.45 14.35L88.45 9.72C88.45 7.97 87.51 6.96 86.03 6.96C84.95 6.96 84.34 7.49 83.99 8.30L83.93 8.30L83.93 7.13L82.81 7.13L82.81 14.35ZM92.93 14.52C94.58 14.52 95.61 13.66 95.61 12.26C95.61 11.17 94.99 10.47 93.39 10.23L92.83 10.15C91.94 10.01 91.45 9.73 91.45 9.03C91.45 8.34 91.94 7.91 92.86 7.91C93.79 7.91 94.40 8.34 94.72 8.79L95.47 8.12C94.88 7.39 94.11 6.96 92.95 6.96C91.48 6.96 90.37 7.66 90.37 9.09C90.37 10.43 91.36 10.98 92.69 11.17L93.27 11.26C94.22 11.40 94.53 11.83 94.53 12.39C94.53 13.13 93.97 13.57 93.02 13.57C92.11 13.57 91.43 13.16 90.87 12.46L90.08 13.10C90.72 13.96 91.60 14.52 92.93 14.52ZM100.48 14.35L100.48 13.37L99.01 13.37L99.01 8.11L100.59 8.11L100.59 7.13L99.01 7.13L99.01 5.12L98.00 5.12L98.00 6.47C98.00 6.96 97.85 7.13 97.37 7.13L96.70 7.13L96.70 8.11L97.89 8.11L97.89 13.16C97.89 13.86 98.31 14.35 99.08 14.35ZM102.96 5.43C103.43 5.43 103.64 5.18 103.64 4.80L103.64 4.62C103.64 4.24 103.43 3.99 102.96 3.99C102.48 3.99 102.27 4.24 102.27 4.62L102.27 4.80C102.27 5.18 102.48 5.43 102.96 5.43ZM102.40 14.35L103.52 14.35L103.52 7.13L102.40 7.13ZM108.89 14.35L108.89 13.37L107.42 13.37L107.42 8.11L109.00 8.11L109.00 7.13L107.42 7.13L107.42 5.12L106.41 5.12L106.41 6.47C106.41 6.96 106.26 7.13 105.78 7.13L105.11 7.13L105.11 8.11L106.30 8.11L106.30 13.16C106.30 13.86 106.72 14.35 107.49 14.35ZM115.26 14.35L116.38 14.35L116.38 7.13L115.26 7.13L115.26 12.12C115.26 13.08 114.39 13.51 113.51 13.51C112.43 13.51 111.86 12.85 111.86 11.56L111.86 7.13L110.74 7.13L110.74 11.76C110.74 13.51 111.69 14.52 113.18 14.52C114.38 14.52 114.93 13.86 115.21 13.17L115.26 13.17ZM121.76 14.35L121.76 13.37L120.29 13.37L120.29 8.11L121.87 8.11L121.87 7.13L120.29 7.13L120.29 5.12L119.28 5.12L119.28 6.47C119.28 6.96 119.13 7.13 118.65 7.13L117.98 7.13L117.98 8.11L119.17 8.11L119.17 13.16C119.17 13.86 119.59 14.35 120.36 14.35ZM126.34 14.52C127.69 14.52 128.73 13.85 129.19 12.87L128.39 12.29C128.02 13.09 127.32 13.54 126.41 13.54C125.06 13.54 124.26 12.60 124.26 11.35L124.26 11.02L129.46 11.02L129.46 10.49C129.46 8.44 128.27 6.96 126.34 6.96C124.38 6.96 123.09 8.44 123.09 10.74C123.09 13.03 124.38 14.52 126.34 14.52ZM126.34 7.90C127.48 7.90 128.25 8.75 128.25 10.02L128.25 10.18L124.26 10.18L124.26 10.08C124.26 8.82 125.12 7.90 126.34 7.90Z"></path></g><!----><!----></svg>