<svg data-v-423bf9ae="" xmlns="http://www.w3.org/2000/svg" viewBox="0 0 577.3593623703437 191" class="iconAboveSlogan"><!----><!----><!----><g data-v-423bf9ae="" id="254d85de-97b9-4c39-adb7-a99204ce6528" fill="#022239" transform="matrix(4.501125307082416,0,0,4.501125307082416,-5.35634307173666,85.04051117390799)"><path d="M2.31 14.35L2.31 9.34C2.31 8.41 3.18 7.97 4.07 7.97C5.15 7.97 5.71 8.62 5.71 9.91L5.71 14.35L6.83 14.35L6.83 9.72C6.83 7.97 5.89 6.96 4.41 6.96C3.33 6.96 2.72 7.49 2.37 8.30L2.31 8.30L2.31 7.13L1.19 7.13L1.19 14.35ZM13.59 14.35L14.71 14.35L14.71 7.13L13.59 7.13L13.59 12.12C13.59 13.08 12.73 13.51 11.84 13.51C10.77 13.51 10.19 12.85 10.19 11.56L10.19 7.13L9.07 7.13L9.07 11.76C9.07 13.51 10.02 14.52 11.51 14.52C12.71 14.52 13.26 13.86 13.54 13.17L13.59 13.17ZM18.21 14.35L18.21 9.34C18.21 8.41 19.05 7.97 19.94 7.97C21 7.97 21.49 8.62 21.49 9.91L21.49 14.35L22.61 14.35L22.61 9.34C22.61 8.41 23.42 7.97 24.30 7.97C25.40 7.97 25.89 8.64 25.89 9.91L25.89 14.35L27.01 14.35L27.01 9.72C27.01 7.97 26.12 6.96 24.65 6.96C23.42 6.96 22.72 7.64 22.46 8.43L22.43 8.43C22.04 7.39 21.17 6.96 20.22 6.96C19.10 6.96 18.59 7.56 18.27 8.30L18.21 8.30L18.21 7.13L17.09 7.13L17.09 14.35ZM32.03 14.52C33.39 14.52 34.43 13.85 34.89 12.87L34.09 12.29C33.71 13.09 33.01 13.54 32.10 13.54C30.76 13.54 29.96 12.60 29.96 11.35L29.96 11.02L35.15 11.02L35.15 10.49C35.15 8.44 33.96 6.96 32.03 6.96C30.07 6.96 28.78 8.44 28.78 10.74C28.78 13.03 30.07 14.52 32.03 14.52ZM32.03 7.90C33.18 7.90 33.95 8.75 33.95 10.02L33.95 10.18L29.96 10.18L29.96 10.08C29.96 8.82 30.81 7.90 32.03 7.90ZM38.12 14.35L38.12 9.45C38.12 8.76 38.85 8.25 40.05 8.25L40.71 8.25L40.71 7.13L40.28 7.13C39.10 7.13 38.44 7.77 38.19 8.46L38.12 8.46L38.12 7.13L37.00 7.13L37.00 14.35ZM44.80 14.52C46.73 14.52 48.06 13.03 48.06 10.74C48.06 8.44 46.73 6.96 44.80 6.96C42.87 6.96 41.54 8.44 41.54 10.74C41.54 13.03 42.87 14.52 44.80 14.52ZM44.80 13.52C43.60 13.52 42.74 12.78 42.74 11.26L42.74 10.22C42.74 8.69 43.60 7.95 44.80 7.95C46.00 7.95 46.86 8.69 46.86 10.22L46.86 11.26C46.86 12.78 46.00 13.52 44.80 13.52ZM52.09 14.35L52.09 13.37L51.03 13.37L51.03 3.99L49.91 3.99L49.91 13.19C49.91 13.86 50.33 14.35 51.10 14.35ZM56.45 14.52C58.38 14.52 59.71 13.03 59.71 10.74C59.71 8.44 58.38 6.96 56.45 6.96C54.52 6.96 53.19 8.44 53.19 10.74C53.19 13.03 54.52 14.52 56.45 14.52ZM56.45 13.52C55.24 13.52 54.39 12.78 54.39 11.26L54.39 10.22C54.39 8.69 55.24 7.95 56.45 7.95C57.65 7.95 58.51 8.69 58.51 10.22L58.51 11.26C58.51 12.78 57.65 13.52 56.45 13.52ZM67.65 15.15C67.65 13.96 66.88 13.23 65.09 13.23L63.55 13.23C62.89 13.23 62.44 13.12 62.44 12.68C62.44 12.24 62.92 12.00 63.39 11.87C63.60 11.91 63.85 11.94 64.09 11.94C65.74 11.94 66.82 10.92 66.82 9.45C66.82 8.68 66.51 8.04 66.00 7.59L66.00 7.13L67.37 7.13L67.37 6.15L66.29 6.15C65.69 6.15 65.45 6.55 65.45 7.11L65.45 7.24C65.06 7.06 64.60 6.96 64.08 6.96C62.44 6.96 61.36 7.98 61.36 9.45C61.36 10.46 61.87 11.26 62.72 11.66L62.72 11.72C61.99 11.90 61.47 12.25 61.47 12.98C61.47 13.47 61.71 13.79 62.12 13.99L62.12 14.14C61.40 14.34 60.97 14.76 60.97 15.54C60.97 16.67 61.89 17.32 64.15 17.32C66.47 17.32 67.65 16.63 67.65 15.15ZM66.60 15.23C66.60 16.02 65.87 16.41 64.62 16.41L63.59 16.41C62.45 16.41 62.02 15.89 62.02 15.26C62.02 14.81 62.23 14.49 62.69 14.28L65.10 14.28C66.22 14.28 66.60 14.66 66.60 15.23ZM64.09 11.05C63.14 11.05 62.54 10.60 62.54 9.65L62.54 9.25C62.54 8.30 63.14 7.85 64.09 7.85C65.04 7.85 65.65 8.30 65.65 9.25L65.65 9.65C65.65 10.60 65.04 11.05 64.09 11.05ZM71.72 12.04L71.33 13.22L71.26 13.22L70.92 12.04L69.19 7.13L68.07 7.13L70.77 14.63L70.22 16.17L69.09 16.17L69.09 17.15L69.66 17.15C70.73 17.15 71.02 16.90 71.34 16.03L74.58 7.13L73.47 7.13ZM79.87 5.43C80.35 5.43 80.56 5.18 80.56 4.80L80.56 4.62C80.56 4.24 80.35 3.99 79.87 3.99C79.39 3.99 79.18 4.24 79.18 4.62L79.18 4.80C79.18 5.18 79.39 5.43 79.87 5.43ZM79.31 14.35L80.43 14.35L80.43 7.13L79.31 7.13ZM83.93 14.35L83.93 9.34C83.93 8.41 84.80 7.97 85.69 7.97C86.77 7.97 87.33 8.62 87.33 9.91L87.33 14.35L88.45 14.35L88.45 9.72C88.45 7.97 87.51 6.96 86.03 6.96C84.95 6.96 84.34 7.49 83.99 8.30L83.93 8.30L83.93 7.13L82.81 7.13L82.81 14.35ZM92.93 14.52C94.58 14.52 95.61 13.66 95.61 12.26C95.61 11.17 94.99 10.47 93.39 10.23L92.83 10.15C91.94 10.01 91.45 9.73 91.45 9.03C91.45 8.34 91.94 7.91 92.86 7.91C93.79 7.91 94.40 8.34 94.72 8.79L95.47 8.12C94.88 7.39 94.11 6.96 92.95 6.96C91.48 6.96 90.37 7.66 90.37 9.09C90.37 10.43 91.36 10.98 92.69 11.17L93.27 11.26C94.22 11.40 94.53 11.83 94.53 12.39C94.53 13.13 93.97 13.57 93.02 13.57C92.11 13.57 91.43 13.16 90.87 12.46L90.08 13.10C90.72 13.96 91.60 14.52 92.93 14.52ZM100.48 14.35L100.48 13.37L99.01 13.37L99.01 8.11L100.59 8.11L100.59 7.13L99.01 7.13L99.01 5.12L98.00 5.12L98.00 6.47C98.00 6.96 97.85 7.13 97.37 7.13L96.70 7.13L96.70 8.11L97.89 8.11L97.89 13.16C97.89 13.86 98.31 14.35 99.08 14.35ZM102.96 5.43C103.43 5.43 103.64 5.18 103.64 4.80L103.64 4.62C103.64 4.24 103.43 3.99 102.96 3.99C102.48 3.99 102.27 4.24 102.27 4.62L102.27 4.80C102.27 5.18 102.48 5.43 102.96 5.43ZM102.40 14.35L103.52 14.35L103.52 7.13L102.40 7.13ZM108.89 14.35L108.89 13.37L107.42 13.37L107.42 8.11L109.00 8.11L109.00 7.13L107.42 7.13L107.42 5.12L106.41 5.12L106.41 6.47C106.41 6.96 106.26 7.13 105.78 7.13L105.11 7.13L105.11 8.11L106.30 8.11L106.30 13.16C106.30 13.86 106.72 14.35 107.49 14.35ZM115.26 14.35L116.38 14.35L116.38 7.13L115.26 7.13L115.26 12.12C115.26 13.08 114.39 13.51 113.51 13.51C112.43 13.51 111.86 12.85 111.86 11.56L111.86 7.13L110.74 7.13L110.74 11.76C110.74 13.51 111.69 14.52 113.18 14.52C114.38 14.52 114.93 13.86 115.21 13.17L115.26 13.17ZM121.76 14.35L121.76 13.37L120.29 13.37L120.29 8.11L121.87 8.11L121.87 7.13L120.29 7.13L120.29 5.12L119.28 5.12L119.28 6.47C119.28 6.96 119.13 7.13 118.65 7.13L117.98 7.13L117.98 8.11L119.17 8.11L119.17 13.16C119.17 13.86 119.59 14.35 120.36 14.35ZM126.34 14.52C127.69 14.52 128.73 13.85 129.19 12.87L128.39 12.29C128.02 13.09 127.32 13.54 126.41 13.54C125.06 13.54 124.26 12.60 124.26 11.35L124.26 11.02L129.46 11.02L129.46 10.49C129.46 8.44 128.27 6.96 126.34 6.96C124.38 6.96 123.09 8.44 123.09 10.74C123.09 13.03 124.38 14.52 126.34 14.52ZM126.34 7.90C127.48 7.90 128.25 8.75 128.25 10.02L128.25 10.18L124.26 10.18L124.26 10.08C124.26 8.82 125.12 7.90 126.34 7.90Z"></path></g><defs data-v-423bf9ae=""><linearGradient data-v-423bf9ae="" gradientTransform="rotate(25)" id="01c5d4c3-ef27-4ffb-90fa-9624eefb070c" x1="0%" y1="0%" x2="100%" y2="0%"><stop data-v-423bf9ae="" offset="0%" style="stop-color: rgb(0, 10, 104); stop-opacity: 1;"></stop><stop data-v-423bf9ae="" offset="100%" style="stop-color: rgb(0, 196, 238); stop-opacity: 1;"></stop></linearGradient></defs><g data-v-423bf9ae="" id="1ff4cac4-8934-4396-b48f-4f6bb7340e06" transform="matrix(1.2164627864773945,0,0,1.2164627864773945,228.21700928246463,-15.815531457105543)" stroke="none" fill="url(#01c5d4c3-ef27-4ffb-90fa-9624eefb070c)"><switch><g><path d="M50.295 13.007c-20.345 0-36.896 16.595-36.896 36.992 0 20.396 16.552 36.991 36.896 36.993 20.345 0 36.896-16.595 36.896-36.993 0-20.397-16.551-36.992-36.896-36.992zm0 71.985c-19.242-.002-34.896-15.7-34.896-34.993 0-19.295 15.654-34.992 34.896-34.992 14.186 0 26.412 8.536 31.863 20.751-5.301-9.878-15.728-16.612-27.701-16.612-17.325 0-31.42 14.095-31.42 31.42 0 17.323 14.095 31.418 31.42 31.419 9.062 0 17.236-3.862 22.977-10.021-6.403 7.938-16.187 13.028-27.139 13.028zm28.788-32.327a2.478 2.478 0 1 1-.002 4.956 2.478 2.478 0 0 1 .002-4.956zm-2.478-6.343a.62.62 0 1 1 0-1.24.62.62 0 0 1 0 1.24zm-6.279 16.481c-2.511 0-4.554-2.068-4.554-4.611 0-2.557 2-4.56 4.554-4.56a4.566 4.566 0 0 1 4.56 4.56c0 2.542-2.046 4.611-4.56 4.611zm4.424 2.245a.621.621 0 1 1-1.242 0 .621.621 0 0 1 1.242 0zm-3.07 4.956a2.477 2.477 0 1 1-4.954-.002 2.477 2.477 0 0 1 4.954.002zm-9.771-4.758a2.476 2.476 0 1 1 0-4.954 2.477 2.477 0 1 1 0 4.954zm2.011 11.106a.62.62 0 1 1-1.241 0 .62.62 0 1 1 1.241 0zm-9.963-28.797c0-.913.739-1.651 1.658-1.651.912 0 1.66.738 1.66 1.651 0 .929-.748 1.65-1.66 1.65a1.641 1.641 0 0 1-1.658-1.65zm1.118 13.047a.619.619 0 1 1-1.238 0 .619.619 0 0 1 1.238 0zm2.953-25.927a2.981 2.981 0 0 1 2.978 2.978 2.98 2.98 0 0 1-2.978 2.976 2.98 2.98 0 0 1-2.976-2.976 2.982 2.982 0 0 1 2.976-2.978zm-1.493-3.808a.397.397 0 1 1 .794-.002.397.397 0 0 1-.794.002zm4.257 25.692c0 .911-.739 1.658-1.652 1.658a1.664 1.664 0 0 1-1.658-1.658c0-.912.747-1.66 1.658-1.66a1.657 1.657 0 0 1 1.652 1.66zm-2.764 12.053a2.478 2.478 0 1 1 0 4.956 2.478 2.478 0 0 1 0-4.956zm4.765-24.191a.884.884 0 1 1-1.768-.004.884.884 0 0 1 1.768.004zm-.114-9.246a.62.62 0 1 1 1.241 0 .62.62 0 1 1-1.241 0zm1.424 16.903a.482.482 0 1 1 0-.966.48.48 0 0 1 .485.483.484.484 0 0 1-.485.483zm-.804-19.655c-1.642 0-2.977-1.335-2.977-2.977s1.335-2.977 2.977-2.977 2.978 1.335 2.978 2.977-1.337 2.977-2.978 2.977zm5.904 8.327a2.477 2.477 0 1 1 0-4.957 2.477 2.477 0 0 1 0 4.957zm1.126 6.805a1.64 1.64 0 0 1-1.664 1.65 1.643 1.643 0 0 1-1.651-1.65c0-.913.744-1.651 1.651-1.651a1.65 1.65 0 0 1 1.664 1.651zM42.177 65.669a.62.62 0 1 1 0-1.24.62.62 0 0 1 0 1.24zm.621 7.897a.62.62 0 1 1-1.24.001.62.62 0 0 1 1.24-.001zm-1.662-15.969a1.04 1.04 0 0 1 0-2.078c.573 0 1.042.469 1.042 1.04 0 .57-.469 1.038-1.042 1.038zm-1.498-10.063a3.16 3.16 0 1 1 6.321 0c0 1.763-1.417 3.196-3.159 3.196-1.743 0-3.162-1.433-3.162-3.196zm.826-14.769a.845.845 0 0 1-.847-.835c0-.471.379-.849.847-.849a.843.843 0 0 1 0 1.684zm1.093 2.676a.62.62 0 1 1 .001 1.243.62.62 0 0 1-.001-1.243zm3.281-4.176a.62.62 0 1 1 1.24-.003.62.62 0 0 1-1.24.003zm2.92 25.517c1.19 0 2.159.969 2.159 2.159s-.969 2.159-2.159 2.159c-1.189 0-2.157-.969-2.157-2.159s.967-2.159 2.157-2.159zm1.008-21.199a1.183 1.183 0 1 1 0-2.367 1.183 1.183 0 0 1 0 2.367zm2.246 4.968c0 .914-.75 1.656-1.662 1.656a1.657 1.657 0 1 1 0-3.314 1.67 1.67 0 0 1 1.662 1.658zm.065 23.875c0 .907-.748 1.658-1.66 1.658a1.672 1.672 0 0 1-1.658-1.658c0-.913.755-1.656 1.658-1.656.912 0 1.66.743 1.66 1.656zm-2.466 5.077c1.642 0 2.978 1.335 2.978 2.977s-1.336 2.977-2.978 2.977-2.977-1.335-2.977-2.977 1.336-2.977 2.977-2.977zm2.478-15.101a1.736 1.736 0 1 1 0-3.474 1.738 1.738 0 0 1 0 3.474zM49.91 30.819c-1.642 0-2.977-1.335-2.977-2.977s1.335-2.978 2.977-2.978 2.978 1.336 2.978 2.978-1.336 2.977-2.978 2.977zM27.506 42.935c0-1.802 1.48-3.268 3.3-3.268a3.233 3.233 0 0 1 3.267 3.268 3.232 3.232 0 0 1-3.267 3.266c-1.82-.001-3.3-1.466-3.3-3.266zm.723 6.067a.62.62 0 1 1-1.24.001.62.62 0 0 1 1.24-.001zm2.559 15.425a.62.62 0 1 1 .003 1.241.62.62 0 0 1-.003-1.241zm.307-7.868a2.477 2.477 0 1 1 4.954-.002 2.477 2.477 0 0 1-4.954.002zm4.666-5.993a.62.62 0 1 1 1.24-.003.62.62 0 0 1-1.24.003zm.621-12.914a.621.621 0 1 1 1.242-.002.621.621 0 0 1-1.242.002zm1.241 26.775a.62.62 0 1 1 .001 1.243.62.62 0 0 1-.001-1.243z"></path><path d="M70.326 54.632c-1.993 0-3.554 1.563-3.554 3.56 0 1.991 1.594 3.611 3.554 3.611 1.963 0 3.56-1.62 3.56-3.611a3.564 3.564 0 0 0-3.56-3.56z"></path><circle cx="63.299" cy="29.446" r="1.977"></circle><circle cx="49.91" cy="27.842" r="1.977"></circle><circle cx="48.611" cy="72.479" r="1.977"></circle><path d="M58.028 39.628a1.98 1.98 0 0 0 1.978-1.976 1.98 1.98 0 0 0-1.978-1.978 1.98 1.98 0 0 0-1.976 1.978 1.98 1.98 0 0 0 1.976 1.976zM30.806 45.2a2.242 2.242 0 0 0 2.267-2.266 2.244 2.244 0 0 0-2.267-2.268c-1.269 0-2.3 1.018-2.3 2.268 0 1.25 1.031 2.266 2.3 2.266zM44.959 47.534a2.16 2.16 0 0 0-2.159-2.155c-1.172 0-2.162.987-2.162 2.155 0 1.211.97 2.196 2.162 2.196 1.211 0 2.159-.964 2.159-2.196zM47.758 60.101c.628 0 1.159-.531 1.159-1.159s-.531-1.159-1.159-1.159a1.16 1.16 0 0 0 0 2.318z"></path></g></switch></g><!----><g data-v-423bf9ae="" id="800ddc81-5c0f-482c-b17c-cbf670be25b0" fill="#022239" transform="matrix(1.6569202106282266,0,0,1.6569202106282266,71.74791927624369,196.586846872249)"><path d="M5.04 2.21L1.13 2.21L1.13 11.48L5.04 11.48C7.25 11.48 9.30 9.74 9.30 6.85C9.30 3.95 7.25 2.21 5.04 2.21ZM5.00 10.49L2.18 10.49L2.18 3.21L5.00 3.21C6.97 3.21 8.25 4.86 8.25 6.85C8.25 8.83 6.97 10.49 5.00 10.49ZM19.04 2.21L17.99 2.21L17.99 11.48L19.04 11.48ZM28.92 4.65C28.92 4.03 29.29 3.08 31.39 3.08C33.08 3.08 33.87 3.82 33.98 4.75L35.06 4.75C34.97 3.36 33.85 2.10 31.39 2.10C29.06 2.10 27.90 3.15 27.90 4.66C27.90 7.84 34.24 6.69 34.24 8.96C34.24 10.05 33.26 10.60 31.70 10.60C30.09 10.60 28.78 10.05 28.71 8.71L27.62 8.71C27.76 10.37 28.88 11.59 31.63 11.59C33.91 11.59 35.29 10.64 35.29 8.92C35.29 5.68 28.92 6.80 28.92 4.65ZM47.89 10.57C45.64 10.57 44.38 8.93 44.38 6.85C44.38 4.76 45.64 3.12 47.89 3.12C49.42 3.12 50.43 3.85 50.90 4.98L52.01 4.98C51.42 3.29 49.91 2.10 47.81 2.10C45.02 2.10 43.33 4.21 43.33 6.85C43.33 9.48 45.02 11.59 47.81 11.59C49.91 11.59 51.42 10.40 52.01 8.71L50.90 8.71C50.43 9.84 49.42 10.57 47.89 10.57ZM64.62 2.10C61.81 2.10 59.92 4.21 59.92 6.85C59.92 9.48 61.81 11.59 64.62 11.59C67.44 11.59 69.33 9.48 69.33 6.85C69.33 4.21 67.44 2.10 64.62 2.10ZM64.62 10.57C62.37 10.57 60.97 8.93 60.97 6.85C60.97 4.76 62.37 3.12 64.62 3.12C66.88 3.12 68.28 4.76 68.28 6.85C68.28 8.93 66.88 10.57 64.62 10.57ZM84.31 2.21L81.10 10.29L77.90 2.21L76.75 2.21L80.50 11.48L81.70 11.48L85.46 2.21ZM100.45 3.22L100.45 2.21L93.63 2.21L93.63 11.48L100.45 11.48L100.45 10.47L94.68 10.47L94.68 7.35L99.83 7.35L99.83 6.33L94.68 6.33L94.68 3.22ZM110.19 7.92L113.41 7.92L115.65 11.48L116.90 11.48L114.46 7.74C115.50 7.50 116.70 6.90 116.70 5.11C116.70 3.35 115.49 2.21 113.58 2.21L109.14 2.21L109.14 11.48L110.19 11.48ZM110.19 3.21L113.46 3.21C114.77 3.21 115.65 3.93 115.65 5.11C115.65 6.55 114.39 6.93 113.40 6.93L110.19 6.93ZM139.29 7.81L143.16 2.21L141.89 2.21L138.75 6.72L135.62 2.21L134.34 2.21L138.24 7.81L138.24 11.48L139.29 11.48ZM154.91 2.10C152.10 2.10 150.21 4.21 150.21 6.85C150.21 9.48 152.10 11.59 154.91 11.59C157.72 11.59 159.61 9.48 159.61 6.85C159.61 4.21 157.72 2.10 154.91 2.10ZM154.91 10.57C152.66 10.57 151.26 8.93 151.26 6.85C151.26 4.76 152.66 3.12 154.91 3.12C157.16 3.12 158.56 4.76 158.56 6.85C158.56 8.93 157.16 10.57 154.91 10.57ZM175.01 2.21L175.01 7.52C175.01 9.67 173.59 10.57 172.12 10.57C170.65 10.57 169.23 9.67 169.23 7.52L169.23 2.21L168.18 2.21L168.18 7.49C168.18 9.95 169.81 11.59 172.12 11.59C174.44 11.59 176.06 9.94 176.06 7.49L176.06 2.21ZM186.27 7.92L189.49 7.92L191.73 11.48L192.98 11.48L190.54 7.74C191.58 7.50 192.78 6.90 192.78 5.11C192.78 3.35 191.56 2.21 189.66 2.21L185.22 2.21L185.22 11.48L186.27 11.48ZM186.27 3.21L189.53 3.21C190.85 3.21 191.73 3.93 191.73 5.11C191.73 6.55 190.47 6.93 189.48 6.93L186.27 6.93ZM202.20 4.65C202.20 4.03 202.57 3.08 204.67 3.08C206.36 3.08 207.14 3.82 207.26 4.75L208.33 4.75C208.25 3.36 207.13 2.10 204.67 2.10C202.34 2.10 201.18 3.15 201.18 4.66C201.18 7.84 207.52 6.69 207.52 8.96C207.52 10.05 206.54 10.60 204.97 10.60C203.36 10.60 202.06 10.05 201.99 8.71L200.90 8.71C201.04 10.37 202.16 11.59 204.90 11.59C207.19 11.59 208.57 10.64 208.57 8.92C208.57 5.68 202.20 6.80 202.20 4.65ZM224.01 3.22L224.01 2.21L217.20 2.21L217.20 11.48L224.01 11.48L224.01 10.47L218.25 10.47L218.25 7.35L223.40 7.35L223.40 6.33L218.25 6.33L218.25 3.22ZM232.71 2.21L232.71 11.48L238.81 11.48L238.81 10.47L233.76 10.47L233.76 2.21ZM253.86 3.22L253.86 2.21L247.17 2.21L247.17 11.48L248.22 11.48L248.22 7.46L253.25 7.46L253.25 6.44L248.22 6.44L248.22 3.22ZM261.11 10.05L261.11 11.48L262.47 11.48L262.47 10.05Z"></path></g></svg>